<svg xmlns="http://www.w3.org/2000/svg" width="512" height="512"><g xmlns="http://www.w3.org/2000/svg"><path d="M285.426 506h195.668C498.163 506 512 492.178 512 475.129V126.96c0-17.05-13.837-30.871-30.905-30.871H228.18z" fill="#f5f5f5" data-original="#f5f5f5"/><path d="M481.095 96.088H450.19c17.069 0 30.905 13.822 30.905 30.871v348.169c0 17.05-13.837 30.871-30.905 30.871h30.905C498.163 506 512 492.178 512 475.129V126.96c0-17.05-13.837-30.872-30.905-30.872z" fill="#eee" data-original="#eeeeee"/><path d="M457.576 245.384h21.458a2.06 2.06 0 002.06-2.06v-26.785a2.06 2.06 0 00-2.06-2.06h-70.483a2.06 2.06 0 01-2.06-2.06v-19.291a2.06 2.06 0 00-2.06-2.06h-26.785a2.06 2.06 0 00-2.06 2.06v19.291a2.06 2.06 0 01-2.06 2.06h-70.482a2.06 2.06 0 00-2.06 2.06v26.785a2.06 2.06 0 002.06 2.06h115.969c1.534 0 2.537 1.615 1.844 2.983-6.056 11.955-15.209 27.311-28.242 42.919-.82.982-2.35.982-3.17 0a226.933 226.933 0 01-19.712-27.596 2.058 2.058 0 00-2.815-.705L343.9 276.681a2.056 2.056 0 00-.718 2.83c6.433 10.617 14.582 22.341 24.699 34.138.742.865.661 2.171-.206 2.91-14.575 12.44-32.139 23.861-53.152 32.444a2.059 2.059 0 00-1.146 2.662l9.87 24.9a2.068 2.068 0 002.695 1.157c23.176-9.439 44.622-22.734 63.71-39.357a2.043 2.043 0 012.694-.002c17.26 15.068 38.307 28.988 63.79 39.358a2.069 2.069 0 002.696-1.155l9.871-24.902a2.058 2.058 0 00-1.146-2.662c-21.027-8.589-38.592-20.015-53.166-32.45a2.051 2.051 0 01-.209-2.903 252.154 252.154 0 0017.231-22.49c12.175-17.884 19.903-34.043 24.261-44.504a2.06 2.06 0 011.902-1.271z" fill="#607d8b" data-original="#607d8b"/><path d="M367.178 404.876L233.21 11.333A7.873 7.873 0 00225.755 6H30.905C13.837 6 0 19.822 0 36.871v337.134c0 17.05 13.837 30.871 30.905 30.871z" fill="#2196f3" data-original="#2196f3"/><path d="M367.178 404.876L285.426 506l-43.989-101.124z" fill="#1565c0" data-original="#1565c0"/><path d="M229.056 196.764c.76 0 1.375.616 1.375 1.375v14.442c0 5.405-.502 10.69-1.465 15.817-7.449 39.823-42.533 69.918-84.585 69.628-47.186-.325-84.949-38.451-84.845-85.638.104-47.102 38.321-85.255 85.448-85.255 23.089 0 44.037 9.16 59.418 24.038.555.537.57 1.422.023 1.968l-20.431 20.431a1.371 1.371 0 01-1.915.027c-9.653-9.189-22.714-14.83-37.095-14.83a53.653 53.653 0 00-53.812 53.44c-.203 29.891 23.968 54.186 53.812 54.186 24.214 0 44.694-15.996 51.447-37.996h-50.072c-.76 0-1.375-.616-1.375-1.375V198.14c0-.76.616-1.375 1.375-1.375h82.697z" fill="#f5f5f5" data-original="#f5f5f5"/></g></svg>